<?xml version="1.0" encoding="UTF-8" standalone="no"?>
<svg
   viewBox="0 0 36 36"
   width="36"
   height="36"
   fill="none"
   class="logo with-wordmark"
   aria-labelledby="logo-6340-title"
   version="1.1"
   id="svg47"
   sodipodi:docname="svgexport-3.svg"
   inkscape:version="1.2 (dc2aedaf03, 2022-05-15)"
   xmlns:inkscape="http://www.inkscape.org/namespaces/inkscape"
   xmlns:sodipodi="http://sodipodi.sourceforge.net/DTD/sodipodi-0.dtd"
   xmlns="http://www.w3.org/2000/svg"
   xmlns:svg="http://www.w3.org/2000/svg"
   xmlns:rdf="http://www.w3.org/1999/02/22-rdf-syntax-ns#"
   xmlns:cc="http://creativecommons.org/ns#"
   xmlns:dc="http://purl.org/dc/elements/1.1/">
  <sodipodi:namedview
     id="namedview49"
     pagecolor="#ffffff"
     bordercolor="#666666"
     borderopacity="1.0"
     inkscape:showpageshadow="2"
     inkscape:pageopacity="0.0"
     inkscape:pagecheckerboard="0"
     inkscape:deskcolor="#d1d1d1"
     showgrid="false"
     inkscape:zoom="18.541911"
     inkscape:cx="18.903122"
     inkscape:cy="21.16826"
     inkscape:window-width="1920"
     inkscape:window-height="1138"
     inkscape:window-x="0"
     inkscape:window-y="398"
     inkscape:window-maximized="1"
     inkscape:current-layer="svg47" />
  <g
     fill="none"
     id="g12">
    <path
       class="logo-mark-background"
       d="M 1,9 A 8,8 0 0 1 9,1 h 18 a 8,8 0 0 1 8,8 v 18 a 8,8 0 0 1 -8,8 H 9 A 8,8 0 0 1 1,27 Z"
       fill="#ffffff"
       id="path8" />
    <path
       class="logo-mark-border"
       d="M 9,0.5 A 8.5,8.5 0 0 0 0.5,9 V 27 A 8.5,8.5 0 0 0 9,35.5 H 27 A 8.5,8.5 0 0 0 35.5,27 V 9 A 8.5,8.5 0 0 0 27,0.5 Z"
       stroke="#706d6b"
       fill="none"
       stroke-opacity="0.2"
       id="path10" />
  </g>
  <g
     fill="none"
     id="g20">
    <path
       fill="#6d4aff"
       d="M 7.28,10.18 A 0.5,0.5 0 0 1 8.09,9.8 l 8.5,7.05 a 2.22,2.22 0 0 0 2.83,0 L 27.9,9.8 a 0.5,0.5 0 0 1 0.8,0.38 v 14.47 a 2.22,2.22 0 0 1 -2.2,2.22 H 9.5 A 2.22,2.22 0 0 1 7.27,24.65 V 10.18 Z"
       id="path14" />
    <path
       fill="url(#logo-6340-a)"
       fill-rule="evenodd"
       d="m 20.9,15.63 -4.28,3.77 a 1.97,1.97 0 0 1 -2.57,0.04 L 7.28,13.81 V 10.18 A 0.5,0.5 0 0 1 8.09,9.8 l 8.5,7.05 a 2.22,2.22 0 0 0 2.83,0 l 1.47,-1.22 z"
       clip-rule="evenodd"
       id="path16"
       style="fill:url(#logo-6340-a)" />
    <path
       fill="url(#logo-6340-b)"
       fill-rule="evenodd"
       d="m 24.16,12.92 v 13.95 h 2.34 a 2.22,2.22 0 0 0 2.22,-2.22 V 10.18 A 0.5,0.5 0 0 0 27.92,9.8 Z"
       clip-rule="evenodd"
       id="path18"
       style="fill:url(#logo-6340-b)" />
  </g>
  <defs
     id="defs44">
    <linearGradient
       id="logo-6340-a"
       x1="23.450001"
       x2="18.57"
       y1="18.09"
       y2="-2.77"
       gradientUnits="userSpaceOnUse">
      <stop
         stop-color="#E2DBFF"
         id="stop22" />
      <stop
         offset="1"
         stop-color="#6D4AFF"
         id="stop24" />
    </linearGradient>
    <linearGradient
       id="logo-6340-b"
       x1="35.25"
       x2="18.57"
       y1="38.169998"
       y2="2.55"
       gradientUnits="userSpaceOnUse">
      <stop
         offset=".27"
         stop-color="#E2DBFF"
         id="stop27" />
      <stop
         offset="1"
         stop-color="#6D4AFF"
         id="stop29" />
    </linearGradient>
    <linearGradient
       id="linearGradient36"
       x1="23.450001"
       x2="18.57"
       y1="18.09"
       y2="-2.77"
       gradientUnits="userSpaceOnUse">
      <stop
         stop-color="#E2DBFF"
         id="stop32" />
      <stop
         offset="1"
         stop-color="#6D4AFF"
         id="stop34" />
    </linearGradient>
    <linearGradient
       id="linearGradient42"
       x1="35.25"
       x2="18.57"
       y1="38.169998"
       y2="2.55"
       gradientUnits="userSpaceOnUse">
      <stop
         offset=".27"
         stop-color="#E2DBFF"
         id="stop38" />
      <stop
         offset="1"
         stop-color="#6D4AFF"
         id="stop40" />
    </linearGradient>
  </defs>
  <title
     id="logo-6340-title">Proton Mail</title>
  <metadata
     id="metadata1019">
    <rdf:RDF>
      <cc:Work
         rdf:about="">
        <dc:title>Proton Mail</dc:title>
      </cc:Work>
    </rdf:RDF>
  </metadata>
</svg>
